<?xml version="1.0" standalone="no"?>
<!DOCTYPE svg PUBLIC "-//W3C//DTD SVG 20010904//EN"
 "http://www.w3.org/TR/2001/REC-SVG-20010904/DTD/svg10.dtd">
<svg version="1.0" xmlns="http://www.w3.org/2000/svg"
 width="256.000000pt" height="256.000000pt" viewBox="0 0 256.000000 256.000000"
 preserveAspectRatio="xMidYMid meet">
<metadata>
Created by potrace 1.14, written by Peter Selinger 2001-2017
</metadata>
<g transform="translate(0.000000,256.000000) scale(0.100000,-0.100000)"
fill="#000000" stroke="none">
<path d="M1193 2548 c-20 -26 -22 -50 -7 -79 31 -61 14 -169 -44 -269 -60
-106 -116 -167 -272 -300 -279 -237 -505 -533 -579 -761 -36 -110 -50 -214
-46 -349 2 -69 7 -141 10 -160 33 -173 170 -375 331 -489 87 -62 228 -123 318
-136 40 -6 46 -5 61 19 24 36 12 61 -50 96 -99 57 -174 153 -203 260 -21 81 3
195 63 295 20 33 40 64 45 69 4 4 17 -11 28 -35 24 -55 51 -83 104 -110 97
-49 212 -13 272 85 25 40 30 58 30 114 0 80 -16 114 -86 186 -78 79 -102 134
-102 233 -1 53 3 86 12 94 10 11 12 10 12 -2 0 -21 89 -119 136 -150 22 -14
98 -65 170 -113 335 -222 419 -332 419 -546 0 -75 -4 -93 -33 -153 -43 -92
-134 -182 -224 -222 -71 -32 -91 -56 -75 -92 14 -32 50 -36 129 -12 207 61
409 194 532 350 126 160 178 310 171 494 -8 229 -108 442 -282 605 -86 81
-207 159 -258 167 -48 8 -74 -22 -68 -75 4 -34 0 -45 -25 -73 -27 -30 -36 -34
-81 -34 -42 0 -55 5 -81 30 -63 60 -67 145 -13 328 42 147 38 294 -14 428 -71
182 -253 368 -300 307z m213 -382 c35 -112 33 -189 -9 -353 -52 -198 -46 -285
26 -379 57 -76 157 -107 247 -77 50 17 113 71 131 114 6 16 14 29 18 29 17 0
132 -93 183 -149 89 -96 169 -247 194 -366 10 -47 10 -248 0 -288 -17 -71 -64
-167 -113 -236 -34 -46 -165 -172 -203 -195 l-30 -17 19 33 c98 170 60 432
-87 598 -50 57 -256 214 -392 299 -112 71 -160 110 -194 160 -24 34 -28 50
-27 100 1 62 -4 68 -56 77 -22 4 -92 -76 -124 -141 -69 -140 -32 -329 87 -453
64 -66 74 -82 74 -119 0 -108 -118 -161 -184 -82 -31 36 -35 68 -21 140 5 27
3 40 -10 52 -26 27 -59 20 -114 -23 -123 -98 -212 -265 -224 -425 -4 -50 17
-143 43 -195 28 -55 26 -56 -22 -18 -127 99 -228 257 -258 400 -20 98 -13 325
11 370 5 10 7 18 5 18 -10 0 56 176 87 230 92 164 284 384 502 571 126 109
183 170 238 256 53 82 71 119 92 196 l17 58 34 -53 c19 -29 46 -89 60 -132z"/>
</g>
</svg>
